<?xml version="1.0" encoding="UTF-8"?>
        <mxfile host="codeviz.app" modified="2025-10-13T23:28:43.062Z" agent="CodeViz Exporter" version="14.6.5" type="device">
          <diagram id="codeviz-diagram" name="System Diagram">
            <mxGraphModel dx="1000" dy="1000" grid="1" gridSize="10" guides="1" tooltips="1" connect="1" arrows="1" fold="1" page="1" pageScale="1" pageWidth="1169" pageHeight="827" math="0" shadow="0">
              <root>
                <mxCell id="0"/>
                <mxCell id="1" parent="0"/>
                <mxCell id="web_application_container" value="" style="html=1;whiteSpace=wrap;container=1;fillColor=#dae8fc;strokeColor=#6c8ebf;dashed=1;fillOpacity=20;strokeWidth=2;containerType=none;recursiveResize=0;movable=1;resizable=1;autosize=0;dropTarget=0" vertex="1" parent="camella_website">
                  <mxGeometry x="158.25" y="-49" width="229" height="431" as="geometry"/>
                </mxCell>
                <mxCell id="web_application_container_label" value="Web Application" style="edgeLabel;html=1;align=center;verticalAlign=middle;resizable=0;labelBackgroundColor=white;spacing=5" vertex="1" parent="camella_website">
                  <mxGeometry x="166.25" y="-41" width="153" height="24" as="geometry"/>
                </mxCell>
<mxCell id="application_database_container" value="" style="html=1;whiteSpace=wrap;container=1;fillColor=#dae8fc;strokeColor=#6c8ebf;dashed=1;fillOpacity=20;strokeWidth=2;containerType=none;recursiveResize=0;movable=1;resizable=1;autosize=0;dropTarget=0" vertex="1" parent="camella_website">
                  <mxGeometry x="41.999999999999986" y="362" width="252" height="269" as="geometry"/>
                </mxCell>
                <mxCell id="application_database_container_label" value="Application Database" style="edgeLabel;html=1;align=center;verticalAlign=middle;resizable=0;labelBackgroundColor=white;spacing=5" vertex="1" parent="camella_website">
                  <mxGeometry x="49.999999999999986" y="370" width="176" height="24" as="geometry"/>
                </mxCell>
<mxCell id="sms_client_container" value="" style="html=1;whiteSpace=wrap;container=1;fillColor=#dae8fc;strokeColor=#6c8ebf;dashed=1;fillOpacity=20;strokeWidth=2;containerType=none;recursiveResize=0;movable=1;resizable=1;autosize=0;dropTarget=0" vertex="1" parent="camella_website">
                  <mxGeometry x="254" y="362" width="246" height="269" as="geometry"/>
                </mxCell>
                <mxCell id="sms_client_container_label" value="SMS Client" style="edgeLabel;html=1;align=center;verticalAlign=middle;resizable=0;labelBackgroundColor=white;spacing=5" vertex="1" parent="camella_website">
                  <mxGeometry x="262" y="370" width="170" height="24" as="geometry"/>
                </mxCell>
<mxCell id="camella_website" value="" style="html=1;whiteSpace=wrap;container=1;fillColor=#dae8fc;strokeColor=#6c8ebf;dashed=1;fillOpacity=20;strokeWidth=2;containerType=none;recursiveResize=0;movable=1;resizable=1;autosize=0;dropTarget=0" vertex="1" parent="base-diagram-group">
                  <mxGeometry x="41.999999999999986" y="116" width="498" height="767" as="geometry"/>
                </mxCell>
                <mxCell id="camella_website_label" value="Camella Website" style="edgeLabel;html=1;align=center;verticalAlign=middle;resizable=0;labelBackgroundColor=white;spacing=5" vertex="1" parent="base-diagram-group">
                  <mxGeometry x="49.999999999999986" y="124" width="422" height="24" as="geometry"/>
                </mxCell>
<mxCell id="base-diagram-group" value="" style="html=1;whiteSpace=wrap;container=1;fillColor=#dae8fc;strokeColor=#6c8ebf;dashed=1;fillOpacity=20;strokeWidth=2;containerType=none;recursiveResize=0;movable=1;resizable=1;autosize=0;dropTarget=0" vertex="1" parent="1">
                  <mxGeometry x="20" y="0" width="540" height="989" as="geometry"/>
                </mxCell>
                <mxCell id="base-diagram-group_label" value="Base Diagram" style="edgeLabel;html=1;align=center;verticalAlign=middle;resizable=0;labelBackgroundColor=white;spacing=5" vertex="1" parent="1">
                  <mxGeometry x="28" y="8" width="464" height="24" as="geometry"/>
                </mxCell>
                <mxCell id="admin_user" value="Admin User" style="rounded=1;whiteSpace=wrap;html=1;fillColor=#f5f5f5" vertex="1" parent="base-diagram-group">
                      <mxGeometry x="254" y="60" width="83" height="41" as="geometry"/>
                    </mxCell>
<mxCell id="promotor_user" value="Promotor User" style="rounded=1;whiteSpace=wrap;html=1;fillColor=#f5f5f5" vertex="1" parent="base-diagram-group">
                      <mxGeometry x="357" y="60" width="100" height="41" as="geometry"/>
                    </mxCell>
<mxCell id="publicante_user" value="Publicante User" style="rounded=1;whiteSpace=wrap;html=1;fillColor=#f5f5f5" vertex="1" parent="base-diagram-group">
                      <mxGeometry x="20" y="60" width="105" height="41" as="geometry"/>
                    </mxCell>
<mxCell id="general_user" value="General User" style="rounded=1;whiteSpace=wrap;html=1;fillColor=#f5f5f5" vertex="1" parent="base-diagram-group">
                      <mxGeometry x="145" y="60" width="89" height="41" as="geometry"/>
                    </mxCell>
<mxCell id="twilio_sms_service" value="Twilio SMS Service" style="rounded=1;whiteSpace=wrap;html=1;fillColor=#f5f5f5" vertex="1" parent="base-diagram-group">
                      <mxGeometry x="286" y="908" width="122" height="41" as="geometry"/>
                    </mxCell>
<mxCell id="external_database" value="External Database" style="rounded=1;whiteSpace=wrap;html=1;fillColor=#f5f5f5" vertex="1" parent="base-diagram-group">
                      <mxGeometry x="78.99999999999999" y="908" width="118" height="41" as="geometry"/>
                    </mxCell>
<mxCell id="controllers" value="Controllers" style="rounded=1;whiteSpace=wrap;html=1;fillColor=#f5f5f5" vertex="1" parent="web_application_container">
                      <mxGeometry x="46.25" y="188" width="79" height="41" as="geometry"/>
                    </mxCell>
<mxCell id="models" value="Models" style="rounded=1;whiteSpace=wrap;html=1;fillColor=#f5f5f5" vertex="1" parent="web_application_container">
                      <mxGeometry x="20" y="269" width="58" height="41" as="geometry"/>
                    </mxCell>
<mxCell id="views" value="Views" style="rounded=1;whiteSpace=wrap;html=1;fillColor=#f5f5f5" vertex="1" parent="web_application_container">
                      <mxGeometry x="98" y="269" width="49" height="41" as="geometry"/>
                    </mxCell>
<mxCell id="core_routing" value="Core &amp; Routing" style="rounded=1;whiteSpace=wrap;html=1;fillColor=#f5f5f5" vertex="1" parent="web_application_container">
                      <mxGeometry x="33.25" y="107" width="105" height="41" as="geometry"/>
                    </mxCell>
<mxCell id="assets" value="Assets" style="rounded=1;whiteSpace=wrap;html=1;fillColor=#f5f5f5" vertex="1" parent="web_application_container">
                      <mxGeometry x="96.5" y="350" width="52" height="41" as="geometry"/>
                    </mxCell>
<mxCell id="db_config" value="Database Configuration" style="rounded=1;whiteSpace=wrap;html=1;fillColor=#f5f5f5" vertex="1" parent="application_database_container">
                      <mxGeometry x="20" y="107" width="152" height="41" as="geometry"/>
                    </mxCell>
<mxCell id="db_schema" value="Database Schema" style="rounded=1;whiteSpace=wrap;html=1;fillColor=#f5f5f5" vertex="1" parent="application_database_container">
                      <mxGeometry x="37" y="188" width="118" height="41" as="geometry"/>
                    </mxCell>
<mxCell id="twilio_script" value="Twilio Send SMS Script" style="rounded=1;whiteSpace=wrap;html=1;fillColor=#f5f5f5" vertex="1" parent="sms_client_container">
                      <mxGeometry x="20" y="107" width="146" height="41" as="geometry"/>
                    </mxCell>
<mxCell id="twilio_library" value="Twilio PHP Library" style="rounded=1;whiteSpace=wrap;html=1;fillColor=#f5f5f5" vertex="1" parent="sms_client_container">
                      <mxGeometry x="34" y="188" width="118" height="41" as="geometry"/>
                    </mxCell>
                <mxCell id="edge-e-core_routing-controllers" style="edgeStyle=orthogonalEdgeStyle;rounded=1;orthogonalLoop=1;jettySize=auto;html=1;strokeColor=#808080;strokeWidth=2;jumpStyle=arc;jumpSize=10;spacing=15;labelBackgroundColor=white;labelBorderColor=none" edge="1" parent="1" source="core_routing" target="controllers">
                    <mxGeometry relative="1" as="geometry"/>
                  </mxCell>
                  <mxCell id="edge-e-core_routing-controllers_label" value="Routes requests to" style="edgeLabel;html=1;align=center;verticalAlign=middle;resizable=0;points=[];" vertex="1" connectable="0" parent="edge-e-core_routing-controllers">
                    <mxGeometry x="-0.2" y="10" relative="1" as="geometry">
                      <mxPoint as="offset"/>
                    </mxGeometry>
                  </mxCell>
<mxCell id="edge-e-controllers-models" style="edgeStyle=orthogonalEdgeStyle;rounded=1;orthogonalLoop=1;jettySize=auto;html=1;strokeColor=#808080;strokeWidth=2;jumpStyle=arc;jumpSize=10;spacing=15;labelBackgroundColor=white;labelBorderColor=none" edge="1" parent="1" source="controllers" target="models">
                    <mxGeometry relative="1" as="geometry"/>
                  </mxCell>
                  <mxCell id="edge-e-controllers-models_label" value="Uses" style="edgeLabel;html=1;align=center;verticalAlign=middle;resizable=0;points=[];" vertex="1" connectable="0" parent="edge-e-controllers-models">
                    <mxGeometry x="-0.2" y="10" relative="1" as="geometry">
                      <mxPoint as="offset"/>
                    </mxGeometry>
                  </mxCell>
<mxCell id="edge-e-controllers-views" style="edgeStyle=orthogonalEdgeStyle;rounded=1;orthogonalLoop=1;jettySize=auto;html=1;strokeColor=#808080;strokeWidth=2;jumpStyle=arc;jumpSize=10;spacing=15;labelBackgroundColor=white;labelBorderColor=none" edge="1" parent="1" source="controllers" target="views">
                    <mxGeometry relative="1" as="geometry"/>
                  </mxCell>
                  <mxCell id="edge-e-controllers-views_label" value="Renders with" style="edgeLabel;html=1;align=center;verticalAlign=middle;resizable=0;points=[];" vertex="1" connectable="0" parent="edge-e-controllers-views">
                    <mxGeometry x="-0.2" y="10" relative="1" as="geometry">
                      <mxPoint as="offset"/>
                    </mxGeometry>
                  </mxCell>
<mxCell id="edge-e-views-assets" style="edgeStyle=orthogonalEdgeStyle;rounded=1;orthogonalLoop=1;jettySize=auto;html=1;strokeColor=#808080;strokeWidth=2;jumpStyle=arc;jumpSize=10;spacing=15;labelBackgroundColor=white;labelBorderColor=none" edge="1" parent="1" source="views" target="assets">
                    <mxGeometry relative="1" as="geometry"/>
                  </mxCell>
                  <mxCell id="edge-e-views-assets_label" value="Includes" style="edgeLabel;html=1;align=center;verticalAlign=middle;resizable=0;points=[];" vertex="1" connectable="0" parent="edge-e-views-assets">
                    <mxGeometry x="-0.2" y="10" relative="1" as="geometry">
                      <mxPoint as="offset"/>
                    </mxGeometry>
                  </mxCell>
<mxCell id="edge-e-db_config-db_schema" style="edgeStyle=orthogonalEdgeStyle;rounded=1;orthogonalLoop=1;jettySize=auto;html=1;strokeColor=#808080;strokeWidth=2;jumpStyle=arc;jumpSize=10;spacing=15;labelBackgroundColor=white;labelBorderColor=none" edge="1" parent="1" source="db_config" target="db_schema">
                    <mxGeometry relative="1" as="geometry"/>
                  </mxCell>
                  <mxCell id="edge-e-db_config-db_schema_label" value="Configures access to" style="edgeLabel;html=1;align=center;verticalAlign=middle;resizable=0;points=[];" vertex="1" connectable="0" parent="edge-e-db_config-db_schema">
                    <mxGeometry x="-0.2" y="10" relative="1" as="geometry">
                      <mxPoint as="offset"/>
                    </mxGeometry>
                  </mxCell>
<mxCell id="edge-e-twilio_script-twilio_library" style="edgeStyle=orthogonalEdgeStyle;rounded=1;orthogonalLoop=1;jettySize=auto;html=1;strokeColor=#808080;strokeWidth=2;jumpStyle=arc;jumpSize=10;spacing=15;labelBackgroundColor=white;labelBorderColor=none" edge="1" parent="1" source="twilio_script" target="twilio_library">
                    <mxGeometry relative="1" as="geometry"/>
                  </mxCell>
                  <mxCell id="edge-e-twilio_script-twilio_library_label" value="Uses" style="edgeLabel;html=1;align=center;verticalAlign=middle;resizable=0;points=[];" vertex="1" connectable="0" parent="edge-e-twilio_script-twilio_library">
                    <mxGeometry x="-0.2" y="10" relative="1" as="geometry">
                      <mxPoint as="offset"/>
                    </mxGeometry>
                  </mxCell>
<mxCell id="edge-e-general_user-web_application_container" style="edgeStyle=orthogonalEdgeStyle;rounded=1;orthogonalLoop=1;jettySize=auto;html=1;strokeColor=#808080;strokeWidth=2;jumpStyle=arc;jumpSize=10;spacing=15;labelBackgroundColor=white;labelBorderColor=none" edge="1" parent="1" source="general_user" target="web_application_container">
                    <mxGeometry relative="1" as="geometry"/>
                  </mxCell>
                  <mxCell id="edge-e-general_user-web_application_container_label" value="Uses | HTTP/S" style="edgeLabel;html=1;align=center;verticalAlign=middle;resizable=0;points=[];" vertex="1" connectable="0" parent="edge-e-general_user-web_application_container">
                    <mxGeometry x="-0.2" y="10" relative="1" as="geometry">
                      <mxPoint as="offset"/>
                    </mxGeometry>
                  </mxCell>
<mxCell id="edge-e-admin_user-web_application_container" style="edgeStyle=orthogonalEdgeStyle;rounded=1;orthogonalLoop=1;jettySize=auto;html=1;strokeColor=#808080;strokeWidth=2;jumpStyle=arc;jumpSize=10;spacing=15;labelBackgroundColor=white;labelBorderColor=none" edge="1" parent="1" source="admin_user" target="web_application_container">
                    <mxGeometry relative="1" as="geometry"/>
                  </mxCell>
                  <mxCell id="edge-e-admin_user-web_application_container_label" value="Manages | HTTP/S" style="edgeLabel;html=1;align=center;verticalAlign=middle;resizable=0;points=[];" vertex="1" connectable="0" parent="edge-e-admin_user-web_application_container">
                    <mxGeometry x="-0.2" y="10" relative="1" as="geometry">
                      <mxPoint as="offset"/>
                    </mxGeometry>
                  </mxCell>
<mxCell id="edge-e-promotor_user-web_application_container" style="edgeStyle=orthogonalEdgeStyle;rounded=1;orthogonalLoop=1;jettySize=auto;html=1;strokeColor=#808080;strokeWidth=2;jumpStyle=arc;jumpSize=10;spacing=15;labelBackgroundColor=white;labelBorderColor=none" edge="1" parent="1" source="promotor_user" target="web_application_container">
                    <mxGeometry relative="1" as="geometry"/>
                  </mxCell>
                  <mxCell id="edge-e-promotor_user-web_application_container_label" value="Interacts with | HTTP/S" style="edgeLabel;html=1;align=center;verticalAlign=middle;resizable=0;points=[];" vertex="1" connectable="0" parent="edge-e-promotor_user-web_application_container">
                    <mxGeometry x="-0.2" y="10" relative="1" as="geometry">
                      <mxPoint as="offset"/>
                    </mxGeometry>
                  </mxCell>
<mxCell id="edge-e-publicante_user-web_application_container" style="edgeStyle=orthogonalEdgeStyle;rounded=1;orthogonalLoop=1;jettySize=auto;html=1;strokeColor=#808080;strokeWidth=2;jumpStyle=arc;jumpSize=10;spacing=15;labelBackgroundColor=white;labelBorderColor=none" edge="1" parent="1" source="publicante_user" target="web_application_container">
                    <mxGeometry relative="1" as="geometry"/>
                  </mxCell>
                  <mxCell id="edge-e-publicante_user-web_application_container_label" value="Publishes content via | HTTP/S" style="edgeLabel;html=1;align=center;verticalAlign=middle;resizable=0;points=[];" vertex="1" connectable="0" parent="edge-e-publicante_user-web_application_container">
                    <mxGeometry x="-0.2" y="10" relative="1" as="geometry">
                      <mxPoint as="offset"/>
                    </mxGeometry>
                  </mxCell>
<mxCell id="edge-e-web_application_container-application_database_container" style="edgeStyle=orthogonalEdgeStyle;rounded=1;orthogonalLoop=1;jettySize=auto;html=1;strokeColor=#808080;strokeWidth=2;jumpStyle=arc;jumpSize=10;spacing=15;labelBackgroundColor=white;labelBorderColor=none" edge="1" parent="1" source="web_application_container" target="application_database_container">
                    <mxGeometry relative="1" as="geometry"/>
                  </mxCell>
                  <mxCell id="edge-e-web_application_container-application_database_container_label" value="Reads from and writes to | JDBC/ODBC" style="edgeLabel;html=1;align=center;verticalAlign=middle;resizable=0;points=[];" vertex="1" connectable="0" parent="edge-e-web_application_container-application_database_container">
                    <mxGeometry x="-0.2" y="10" relative="1" as="geometry">
                      <mxPoint as="offset"/>
                    </mxGeometry>
                  </mxCell>
<mxCell id="edge-e-web_application_container-sms_client_container" style="edgeStyle=orthogonalEdgeStyle;rounded=1;orthogonalLoop=1;jettySize=auto;html=1;strokeColor=#808080;strokeWidth=2;jumpStyle=arc;jumpSize=10;spacing=15;labelBackgroundColor=white;labelBorderColor=none" edge="1" parent="1" source="web_application_container" target="sms_client_container">
                    <mxGeometry relative="1" as="geometry"/>
                  </mxCell>
                  <mxCell id="edge-e-web_application_container-sms_client_container_label" value="Sends messages to" style="edgeLabel;html=1;align=center;verticalAlign=middle;resizable=0;points=[];" vertex="1" connectable="0" parent="edge-e-web_application_container-sms_client_container">
                    <mxGeometry x="-0.2" y="10" relative="1" as="geometry">
                      <mxPoint as="offset"/>
                    </mxGeometry>
                  </mxCell>
<mxCell id="edge-e-application_database_container-external_database" style="edgeStyle=orthogonalEdgeStyle;rounded=1;orthogonalLoop=1;jettySize=auto;html=1;strokeColor=#808080;strokeWidth=2;jumpStyle=arc;jumpSize=10;spacing=15;labelBackgroundColor=white;labelBorderColor=none" edge="1" parent="1" source="application_database_container" target="external_database">
                    <mxGeometry relative="1" as="geometry"/>
                  </mxCell>
                  <mxCell id="edge-e-application_database_container-external_database_label" value="Connects to | SQL" style="edgeLabel;html=1;align=center;verticalAlign=middle;resizable=0;points=[];" vertex="1" connectable="0" parent="edge-e-application_database_container-external_database">
                    <mxGeometry x="-0.2" y="10" relative="1" as="geometry">
                      <mxPoint as="offset"/>
                    </mxGeometry>
                  </mxCell>
<mxCell id="edge-e-sms_client_container-twilio_sms_service" style="edgeStyle=orthogonalEdgeStyle;rounded=1;orthogonalLoop=1;jettySize=auto;html=1;strokeColor=#808080;strokeWidth=2;jumpStyle=arc;jumpSize=10;spacing=15;labelBackgroundColor=white;labelBorderColor=none" edge="1" parent="1" source="sms_client_container" target="twilio_sms_service">
                    <mxGeometry relative="1" as="geometry"/>
                  </mxCell>
                  <mxCell id="edge-e-sms_client_container-twilio_sms_service_label" value="Sends SMS via | HTTP/S (API)" style="edgeLabel;html=1;align=center;verticalAlign=middle;resizable=0;points=[];" vertex="1" connectable="0" parent="edge-e-sms_client_container-twilio_sms_service">
                    <mxGeometry x="-0.2" y="10" relative="1" as="geometry">
                      <mxPoint as="offset"/>
                    </mxGeometry>
                  </mxCell>
              </root>
            </mxGraphModel>
          </diagram>
        </mxfile>